# xmcd
#
# Track frame offsets:
#	150
#	15977
#	31402
#	46151
#	61120
#	74629
#	88203
#	101949
#	116111
#	128556
#	152382
#	166319
#	180275
#	203225
#	226882
#	240796
#	254277
#	268823
#
# Disc length: 3782 seconds
#
# Revision: 0
# Processed by: cddbd v1.5.2PL0 Copyright (c) Steve Scherf et al.
# Submitted via: EasyCDDAExtractor 10.0.2.1
#
DISCID=e50ec412
DTITLE=Purshottam Upadhyay - Best of Purshottam Upadhyay
DYEAR=1900
DGENRE=Gujarati
TTITLE0=Tamaaraa Nayan Maa Ek Swapnu
TTITLE1=He Ranglo Jamyo Kaalindi Ne Ghat
TTITLE2=Kahun Chhu Javaani Ne Paachhi
TTITLE3=Majham Raate
TTITLE4=Nazar Milaavi Nazar Thi
TTITLE5=Ghumati Ghumati Ghumati Re
TTITLE6=Laagi Re Lagaavi Lagan Na Laage
TTITLE7=Aare Dharti Ne Aare
TTITLE8=Ek Velna Anek Tumbda
TTITLE9=Divso Judaai Na Jaay Chhe
TTITLE10=Raat Divasno Rasto Vaalam
TTITLE11=Bhule Chuke Male To Mulaaqaat
TTITLE12=Karine Mohabbat
TTITLE13=Maaru Jeevan
TTITLE14=Laal Chatak Chundadi Maan
TTITLE15=Jyare Kala Kala Nahi
TTITLE16=Chhodi Ke Dahadanu Parnyun
TTITLE17=Hun Ek Atulun Pankhi
EXTD=
EXTT0=
EXTT1=
EXTT2=
EXTT3=
EXTT4=
EXTT5=
EXTT6=
EXTT7=
EXTT8=
EXTT9=
EXTT10=
EXTT11=
EXTT12=
EXTT13=
EXTT14=
EXTT15=
EXTT16=
EXTT17=
PLAYORDER=
